HIERARCHY
ROOT hips
{
	OFFSET 0.000000 104.274902 0.000000
	CHANNELS 6 Xposition Yposition Zposition Xrotation Yrotation Zrotation
	JOINT spine
	{
		OFFSET 0.000000 10.181549 0.131524
		CHANNELS 6 Xposition Yposition Zposition Xrotation Yrotation Zrotation
		JOINT chest
		{
			OFFSET 0.000000 9.893990 -1.470706
			CHANNELS 3 Xrotation Yrotation Zrotation
			JOINT upperChest
			{
				OFFSET 0.000000 9.220787 -1.370637
				CHANNELS 3 Xrotation Yrotation Zrotation
				JOINT neck
				{
					OFFSET 0.000000 16.740372 -2.049022
					CHANNELS 6 Xposition Yposition Zposition Xrotation Yrotation Zrotation
					JOINT head
					{
						OFFSET 0.000000 9.617859 1.684976
						CHANNELS 6 Xposition Yposition Zposition Xrotation Yrotation Zrotation
						JOINT headEnd
						{
							OFFSET 0.000000 22.037384 7.501072
							CHANNELS 6 Xposition Yposition Zposition Xrotation Yrotation Zrotation
							End Site
							{
								OFFSET 0.000000 23.106567 -2.828246
							}
						}
					}
				}
				JOINT rightShoulder
				{
					OFFSET -4.570000 11.014877 -2.160840
					CHANNELS 6 Xposition Yposition Zposition Xrotation Yrotation Zrotation
					JOINT rightUpperArm
					{
						OFFSET -10.592867 -0.524796 -2.232105
						CHANNELS 3 Xrotation Yrotation Zrotation
						JOINT rightLowerArm
						{
							OFFSET -27.841497 0.000000 -0.000002
							CHANNELS 3 Xrotation Yrotation Zrotation
							JOINT rightHand
							{
								OFFSET -28.328812 0.000000 -0.000001
								CHANNELS 3 Xrotation Yrotation Zrotation
								JOINT rightThumbProximal
								{
									OFFSET -2.464798 -1.573990 2.681911
									CHANNELS 6 Xposition Yposition Zposition Xrotation Yrotation Zrotation
									JOINT rightThumbIntermediate
									{
										OFFSET -3.244781 -1.873383 1.873376
										CHANNELS 3 Xrotation Yrotation Zrotation
										JOINT rightThumbDistal
										{
											OFFSET -2.646263 -1.527817 1.527818
											CHANNELS 6 Xposition Yposition Zposition Xrotation Yrotation Zrotation
											JOINT rightHandThumb4
											{
												OFFSET -1.994591 -1.151581 1.151575
												CHANNELS 6 Xposition Yposition Zposition Xrotation Yrotation Zrotation
												End Site
												{
													OFFSET -1.860176 -1.142715 1.365483
												}
											}
										}
									}
								}
								JOINT rightIndexProximal
								{
									OFFSET -9.108299 -0.517883 2.259803
									CHANNELS 6 Xposition Yposition Zposition Xrotation Yrotation Zrotation
									JOINT rightIndexIntermediate
									{
										OFFSET -3.699997 0.000000 0.000000
										CHANNELS 3 Xrotation Yrotation Zrotation
										JOINT rightIndexDistal
										{
											OFFSET -2.850006 0.000000 0.000000
											CHANNELS 3 Xrotation Yrotation Zrotation
											JOINT rightHandIndex4
											{
												OFFSET -2.772194 0.000000 0.000000
												CHANNELS 3 Xrotation Yrotation Zrotation
												End Site
												{
													OFFSET -2.772202 0.000000 -0.000484
												}
											}
										}
									}
								}
								JOINT rightMiddleProximal
								{
									OFFSET -9.532501 0.000000 -0.000000
									CHANNELS 6 Xposition Yposition Zposition Xrotation Yrotation Zrotation
									JOINT rightMiddleIntermediate
									{
										OFFSET -3.699997 0.000000 0.000000
										CHANNELS 3 Xrotation Yrotation Zrotation
										JOINT rightMiddleDistal
										{
											OFFSET -2.949997 0.000000 0.000000
											CHANNELS 3 Xrotation Yrotation Zrotation
											JOINT rightHandMiddle4
											{
												OFFSET -2.946594 0.000000 0.000000
												CHANNELS 3 Xrotation Yrotation Zrotation
												End Site
												{
													OFFSET -2.946602 0.000000 -0.000982
												}
											}
										}
									}
								}
								JOINT rightRingProximal
								{
									OFFSET -9.103600 -0.043106 -1.865100
									CHANNELS 6 Xposition Yposition Zposition Xrotation Yrotation Zrotation
									JOINT rightRingIntermediate
									{
										OFFSET -3.379303 0.000000 0.000000
										CHANNELS 3 Xrotation Yrotation Zrotation
										JOINT rightRingDistal
										{
											OFFSET -2.889694 0.000000 0.000000
											CHANNELS 3 Xrotation Yrotation Zrotation
											JOINT rightHandRing4
											{
												OFFSET -2.638802 0.000000 0.000000
												CHANNELS 3 Xrotation Yrotation Zrotation
												End Site
												{
													OFFSET -2.638802 0.000000 0.004218
												}
											}
										}
									}
								}
								JOINT rightLittleProximal
								{
									OFFSET -8.076698 -0.486725 -3.806299
									CHANNELS 6 Xposition Yposition Zposition Xrotation Yrotation Zrotation
									JOINT rightLittleIntermediate
									{
										OFFSET -3.600006 0.000000 0.000000
										CHANNELS 3 Xrotation Yrotation Zrotation
										JOINT rightLittleDistal
										{
											OFFSET -2.099998 0.000000 0.000000
											CHANNELS 3 Xrotation Yrotation Zrotation
											JOINT rightHandPinky4
											{
												OFFSET -2.115791 0.000000 0.000000
												CHANNELS 3 Xrotation Yrotation Zrotation
												End Site
												{
													OFFSET -2.115799 0.000000 0.000174
												}
											}
										}
									}
								}
							}
						}
					}
				}
				JOINT leftShoulder
				{
					OFFSET 4.570400 11.014679 -2.160816
					CHANNELS 6 Xposition Yposition Zposition Xrotation Yrotation Zrotation
					JOINT leftUpperArm
					{
						OFFSET 10.592373 -0.524597 -2.232116
						CHANNELS 3 Xrotation Yrotation Zrotation
						JOINT leftLowerArm
						{
							OFFSET 27.841488 0.000000 0.000001
							CHANNELS 3 Xrotation Yrotation Zrotation
							JOINT leftHand
							{
								OFFSET 28.328808 0.000000 -0.000000
								CHANNELS 3 Xrotation Yrotation Zrotation
								JOINT leftThumbProximal
								{
									OFFSET 2.466103 -1.576202 2.681698
									CHANNELS 6 Xposition Yposition Zposition Xrotation Yrotation Zrotation
									JOINT leftThumbIntermediate
									{
										OFFSET 3.243317 -1.872528 1.872530
										CHANNELS 3 Xrotation Yrotation Zrotation
										JOINT leftThumbDistal
										{
											OFFSET 2.647881 -1.528763 1.528754
											CHANNELS 6 Xposition Yposition Zposition Xrotation Yrotation Zrotation
											JOINT leftHandThumb4
											{
												OFFSET 1.998924 -1.154083 1.154080
												CHANNELS 6 Xposition Yposition Zposition Xrotation Yrotation Zrotation
												End Site
												{
													OFFSET 1.884041 -1.149155 1.337651
												}
											}
										}
									}
								}
								JOINT leftIndexProximal
								{
									OFFSET 9.109299 -0.518005 2.259900
									CHANNELS 6 Xposition Yposition Zposition Xrotation Yrotation Zrotation
									JOINT leftIndexIntermediate
									{
										OFFSET 3.699997 0.000000 0.000000
										CHANNELS 3 Xrotation Yrotation Zrotation
										JOINT leftIndexDistal
										{
											OFFSET 2.850006 0.000000 0.000000
											CHANNELS 3 Xrotation Yrotation Zrotation
											JOINT leftHandIndex4
											{
												OFFSET 2.774895 0.000000 0.000000
												CHANNELS 3 Xrotation Yrotation Zrotation
												End Site
												{
													OFFSET 2.774902 0.000000 -0.000072
												}
											}
										}
									}
								}
								JOINT leftMiddleProximal
								{
									OFFSET 9.533401 0.000000 0.000000
									CHANNELS 6 Xposition Yposition Zposition Xrotation Yrotation Zrotation
									JOINT leftMiddleIntermediate
									{
										OFFSET 3.699997 0.000000 0.000000
										CHANNELS 3 Xrotation Yrotation Zrotation
										JOINT leftMiddleDistal
										{
											OFFSET 2.949997 0.000000 0.000000
											CHANNELS 3 Xrotation Yrotation Zrotation
											JOINT leftHandMiddle4
											{
												OFFSET 2.952896 0.000000 0.000000
												CHANNELS 3 Xrotation Yrotation Zrotation
												End Site
												{
													OFFSET 2.952904 0.000000 0.000165
												}
											}
										}
									}
								}
								JOINT leftRingProximal
								{
									OFFSET 9.104500 -0.042999 -1.865101
									CHANNELS 6 Xposition Yposition Zposition Xrotation Yrotation Zrotation
									JOINT leftRingIntermediate
									{
										OFFSET 3.149994 0.000000 0.000000
										CHANNELS 3 Xrotation Yrotation Zrotation
										JOINT leftRingDistal
										{
											OFFSET 2.950005 0.000000 0.000000
											CHANNELS 3 Xrotation Yrotation Zrotation
											JOINT leftHandRing4
											{
												OFFSET 2.644302 0.000000 0.000000
												CHANNELS 3 Xrotation Yrotation Zrotation
												End Site
												{
													OFFSET 2.644302 0.000000 0.000083
												}
											}
										}
									}
								}
								JOINT leftLittleProximal
								{
									OFFSET 8.077805 -0.486893 -3.806302
									CHANNELS 6 Xposition Yposition Zposition Xrotation Yrotation Zrotation
									JOINT leftLittleIntermediate
									{
										OFFSET 3.600006 0.000000 0.000000
										CHANNELS 3 Xrotation Yrotation Zrotation
										JOINT leftLittleDistal
										{
											OFFSET 2.099998 0.000000 0.000000
											CHANNELS 3 Xrotation Yrotation Zrotation
											JOINT leftHandPinky4
											{
												OFFSET 2.125496 0.000000 0.000000
												CHANNELS 3 Xrotation Yrotation Zrotation
												End Site
												{
													OFFSET 2.125504 0.000000 -0.001254
												}
											}
										}
									}
								}
							}
						}
					}
				}
			}
		}
	}
	JOINT rightUpperLeg
	{
		OFFSET -8.207800 -6.751701 -1.599544
		CHANNELS 6 Xposition Yposition Zposition Xrotation Yrotation Zrotation
		JOINT rightLowerLeg
		{
			OFFSET 0.000004 -44.370152 0.345934
			CHANNELS 3 Xrotation Yrotation Zrotation
			JOINT rightFoot
			{
				OFFSET 0.000004 -44.423664 -3.043535
				CHANNELS 3 Xrotation Yrotation Zrotation
				JOINT rightToes
				{
					OFFSET 0.000001 -8.728691 10.710592
					CHANNELS 3 Xrotation Yrotation Zrotation
					JOINT rightToesEnd
					{
						OFFSET 0.000000 -0.000665 9.278101
						CHANNELS 3 Xrotation Yrotation Zrotation
						End Site
						{
							OFFSET 0.000000 -0.000665 9.278103
						}
					}
				}
			}
		}
	}
	JOINT leftUpperLeg
	{
		OFFSET 8.207800 -6.751701 -1.599544
		CHANNELS 6 Xposition Yposition Zposition Xrotation Yrotation Zrotation
		JOINT leftLowerLeg
		{
			OFFSET 0.000004 -44.370037 0.346940
			CHANNELS 3 Xrotation Yrotation Zrotation
			JOINT leftFoot
			{
				OFFSET 0.000004 -44.423611 -3.044388
				CHANNELS 3 Xrotation Yrotation Zrotation
				JOINT leftToes
				{
					OFFSET 0.000001 -8.728690 10.710592
					CHANNELS 3 Xrotation Yrotation Zrotation
					JOINT leftToesEnd
					{
						OFFSET 0.000000 -0.000680 9.278101
						CHANNELS 3 Xrotation Yrotation Zrotation
						End Site
						{
							OFFSET 0.000000 -0.000680 9.278101
						}
					}
				}
			}
		}
	}
}
MOTION
Frames: 4
Frame Time: 0.033333
-13.732639 98.199493 -0.890959 -3.534535 -14.141626 -5.428953 0.000003 10.181555 0.131524 0.260615 -2.917789 -3.013394 5.980356 -0.326009 2.324501 5.995584 -0.302230 2.288298 -0.000001 16.740366 -2.049019 -2.770254 -7.350890 6.779741 0.000003 9.617878 1.684982 -36.531260 -24.304550 -17.651914 0.000002 22.037369 7.501070 0.000003 -0.000002 -0.000000 -4.570001 11.014881 -2.160839 0.489534 1.033039 4.996820 -8.069446 16.280056 31.287007 0.000112 132.652109 -0.000054 11.071559 -3.279574 -3.097911 -2.464791 -1.573969 2.681912 -2.383217 -19.712390 -9.204576 6.045616 -24.847269 -1.253521 -2.646275 -1.527819 1.527805 -0.588637 -7.469684 -2.891642 -1.994590 -1.151597 1.151591 -0.000002 -0.000002 0.000003 -9.108299 -0.517884 2.259802 0.004059 0.238024 -1.953492 0.780976 -3.206638 27.369084 1.797413 -4.669660 42.086632 0.000000 0.000003 -0.000003 -9.532499 0.000009 -0.000002 0.055646 -0.879685 7.238290 1.253838 -3.987999 34.894450 2.173884 -5.053983 46.526412 -0.000000 -0.000002 0.000002 -9.103598 -0.043108 -1.865100 0.369997 -2.242066 18.739360 1.983146 -4.866729 44.320490 2.683974 -5.490875 52.073086 0.000004 0.000000 0.000000 -8.076683 -0.486732 -3.806302 0.813021 -3.267722 27.936669 2.669433 -5.479558 51.920824 3.118801 -5.802025 56.490138 -0.000001 0.000000 -0.000000 4.570401 11.014694 -2.160814 0.718725 -6.035391 -6.836088 -4.336574 -31.329111 -57.116719 0.000020 -22.444521 0.000011 50.499622 9.730737 -7.322985 2.466095 -1.576202 2.681699 -1.948623 17.809047 8.316548 4.968115 20.881111 1.676103 2.647881 -1.528761 1.528755 0.679606 16.452635 3.900982 1.998924 -1.154075 1.154075 -0.000003 0.000002 0.000003 9.109287 -0.518014 2.259901 0.004035 0.236274 -1.958162 0.118670 1.275489 -10.631629 0.234619 1.785627 -14.970605 0.000002 -0.000000 0.000000 9.533408 0.000006 0.000000 0.087873 1.098943 -9.145865 0.288615 1.976404 -16.615429 0.446849 2.444518 -20.716633 -0.000001 -0.000001 -0.000000 9.104488 -0.042996 -1.865100 0.344525 2.154840 -18.166734 0.601677 2.819745 -24.087261 0.802279 3.230743 -27.887097 0.000001 0.000003 -0.000005 8.077802 -0.486906 -3.806300 2.399817 6.630658 -25.024164 0.940389 -0.602389 -30.507716 1.156614 3.824868 -33.640553 -0.000001 0.000002 0.000001 -8.207797 -6.751713 -1.599542 -14.974737 -3.461098 -0.059220 35.802410 6.092200 3.573169 -17.415370 0.274495 -1.709478 -1.353043 -0.000003 0.000000 0.000000 -0.000001 0.000000 8.207802 -6.751700 -1.599544 -9.504358 0.337469 11.759313 33.680571 9.858513 6.311898 -18.136678 5.781814 -16.246186 -0.028677 -0.000003 -0.000001 -0.000000 0.000000 0.000000 
-13.950153 97.972656 -1.232533 -2.281150 -13.282619 -6.575449 0.000000 10.181541 0.131526 -0.499399 -3.433572 -2.725009 5.939941 -0.328787 3.406190 5.964399 -0.313310 3.365036 0.000001 16.740362 -2.049019 -2.781896 -7.219456 7.068272 -0.000001 9.617804 1.684988 -36.504694 -23.664369 -17.020966 -0.000003 22.037369 7.501074 -0.000002 -0.000002 -0.000000 -4.570001 11.014858 -2.160840 0.497733 1.134050 5.198259 -9.917229 14.803808 31.176501 0.000128 132.918090 -0.000064 6.571240 -3.407838 -3.635691 -2.464795 -1.573985 2.681910 -2.383223 -19.712384 -9.204577 6.045617 -24.847274 -1.253518 -2.646259 -1.527813 1.527814 -0.588635 -7.469681 -2.891639 -1.994594 -1.151567 1.151580 0.000001 0.000000 0.000001 -9.108299 -0.517869 2.259809 0.057584 0.895019 -7.364880 0.636194 -2.910376 24.655952 1.688035 -4.546029 40.725140 -0.000001 -0.000002 0.000000 -9.532491 -0.000008 -0.000000 0.003542 -0.222335 1.824728 1.095309 -3.751036 32.545985 2.046549 -4.930594 45.063047 0.000001 -0.000002 0.000001 -9.103604 -0.043081 -1.865093 0.187716 -1.607936 13.317253 1.825442 -4.700414 42.429757 2.533327 -5.370613 50.481286 -0.000004 -0.000001 0.000002 -8.076697 -0.486709 -3.806293 0.531372 -2.670549 22.503547 2.525617 -5.364291 50.398856 2.948924 -5.686477 54.793086 0.000000 0.000000 0.000000 4.570402 11.014668 -2.160815 0.727658 -6.391959 -6.973368 -5.328657 -33.577613 -58.895061 -0.000010 -22.248281 -0.000005 49.811835 9.879258 -7.088193 2.466106 -1.576203 2.681698 -1.948623 17.809045 8.316548 4.968112 20.881106 1.676099 2.647896 -1.528749 1.528751 0.679605 16.452628 3.900985 1.998921 -1.154092 1.154078 0.000002 -0.000000 -0.000002 9.109305 -0.518018 2.259901 0.001463 0.142677 -1.182402 0.110175 1.229454 -10.243571 0.228608 1.762999 -14.776476 0.000001 0.000002 -0.000000 9.533408 -0.000001 -0.000001 0.083818 1.073430 -8.931934 0.285600 1.966289 -16.527934 0.440618 2.428060 -20.570566 -0.000000 0.000002 -0.000000 9.104501 -0.043001 -1.865101 0.363127 2.210685 -18.655272 0.616073 2.851671 -24.378094 0.797368 3.221434 -27.799792 0.000002 0.000001 -0.000001 8.077817 -0.486903 -3.806304 2.523184 6.712156 -26.085985 0.976808 -0.541289 -31.096687 1.154060 3.821025 -33.602215 0.000000 0.000002 -0.000000 -8.207799 -6.751718 -1.599542 -16.111788 -3.461612 0.633364 35.411211 5.197258 5.757452 -17.056794 0.436976 -2.670295 -1.474456 0.000007 -0.000000 -0.000000 -0.000001 0.000000 8.207800 -6.751714 -1.599546 -13.107282 3.862451 14.427405 35.047278 7.655732 7.436871 -18.613946 3.573473 -16.515606 -0.297569 0.000000 -0.000002 0.000000 0.000000 0.000000 
-14.099586 97.234947 -1.652691 -1.541695 -12.265291 -8.487848 -0.000004 10.181552 0.131524 -0.737826 -4.078226 -1.900746 5.982754 -0.326502 4.662435 6.019865 -0.324277 4.615599 0.000000 16.740376 -2.049020 -2.534139 -6.963950 7.106912 -0.000002 9.617846 1.684976 -36.002726 -22.677138 -16.235563 0.000005 22.037369 7.501082 -0.000001 0.000001 0.000001 -4.570001 11.014881 -2.160838 0.512893 1.397264 5.469172 -13.645083 14.651637 30.905899 0.000150 131.877047 -0.000099 -0.148097 -3.361193 -4.304138 -2.464789 -1.573966 2.681904 -2.383225 -19.712382 -9.204579 6.045612 -24.847269 -1.253511 -2.646277 -1.527789 1.527825 -0.588636 -7.469681 -2.891634 -1.994590 -1.151581 1.151591 -0.000001 0.000001 0.000003 -9.108297 -0.517874 2.259802 0.150944 1.443767 -11.935582 0.525013 -2.655114 22.366155 1.597998 -4.439626 39.575916 -0.000002 -0.000001 0.000002 -9.532497 0.000034 -0.000001 0.005544 0.277912 -2.281091 0.929795 -3.478629 29.921064 1.935537 -4.817689 43.756774 0.000002 0.000004 0.000001 -9.103599 -0.043086 -1.865106 0.101638 -1.186906 9.788221 1.583114 -4.421596 39.383031 2.394154 -5.253225 48.978163 0.000001 0.000000 0.000002 -8.076694 -0.486714 -3.806299 0.397676 -2.321968 19.434125 2.216811 -5.094171 47.011714 2.786256 -5.568702 53.134425 -0.000001 0.000002 0.000000 4.570398 11.014692 -2.160814 0.732569 -6.578871 -7.017129 -6.947861 -36.396429 -60.978597 -0.000008 -21.260560 -0.000014 49.745292 9.468423 -6.539391 2.466095 -1.576209 2.681700 -1.948624 17.809049 8.316551 4.968111 20.881102 1.676097 2.647881 -1.528751 1.528744 0.679606 16.452635 3.900981 1.998917 -1.154089 1.154076 0.000005 -0.000003 -0.000000 9.109312 -0.518033 2.259901 0.001000 0.117668 -0.975094 0.107978 1.217129 -10.139866 0.227014 1.756950 -14.724602 -0.000000 0.000000 -0.000000 9.533401 -0.000002 0.000001 0.083656 1.072416 -8.923369 0.288700 1.976693 -16.617854 0.433268 2.408350 -20.395860 -0.000002 -0.000001 0.000003 9.104491 -0.042997 -1.865101 0.372443 2.238087 -18.895339 0.632753 2.888140 -24.711110 0.778977 3.186376 -27.470778 0.000001 0.000004 -0.000001 8.077803 -0.486921 -3.806300 2.575161 6.745557 -26.529677 1.009791 -0.487168 -31.621594 1.124015 3.775539 -33.148858 0.000003 -0.000002 -0.000001 -8.207802 -6.751700 -1.599540 -17.442814 -4.230094 1.988707 36.618359 4.673356 7.333800 -17.487610 0.613004 -3.501034 -1.506089 0.000001 0.000000 -0.000000 -0.000000 0.000000 8.207797 -6.751713 -1.599544 -17.900428 7.562929 18.096009 38.793627 1.918915 9.002965 -20.169718 3.617128 -15.732596 -0.415814 -0.000002 -0.000003 0.000000 -0.000000 0.000000 
-14.059378 96.266579 -2.086203 -1.443561 -11.269073 -10.774081 -0.000001 10.181537 0.131524 -0.334633 -4.696914 -0.345196 6.046734 -0.327454 5.641790 6.095207 -0.341002 5.590468 0.000002 16.740356 -2.049018 -2.053547 -6.621855 6.919918 -0.000003 9.617859 1.684981 -34.880625 -21.486650 -15.347826 -0.000000 22.037369 7.501078 0.000001 -0.000002 -0.000001 -4.570001 11.014875 -2.160841 0.521686 1.626574 5.492254 -17.839710 16.536609 30.689566 0.000127 129.467274 -0.000072 -8.370975 -3.117490 -4.938429 -2.464795 -1.573982 2.681907 -2.383220 -19.712384 -9.204577 6.045622 -24.847267 -1.253514 -2.646266 -1.527808 1.527827 -0.588632 -7.469672 -2.891637 -1.994602 -1.151587 1.151580 -0.000001 -0.000003 0.000001 -9.108294 -0.517863 2.259798 0.208656 1.693850 -14.043346 0.477205 -2.535972 21.310936 1.557239 -4.389986 39.046224 -0.000001 -0.000001 -0.000000 -9.532492 0.000007 -0.000002 0.021057 0.541638 -4.449160 0.826651 -3.293266 28.175099 1.878202 -4.757287 43.069564 -0.000000 0.000002 0.000003 -9.103601 -0.043115 -1.865107 0.060413 -0.916445 7.542441 1.387259 -4.172315 36.769562 2.313712 -5.182450 48.093633 -0.000001 -0.000002 0.000001 -8.076694 -0.486727 -3.806302 0.309443 -2.055042 17.123969 1.930873 -4.812836 43.700985 2.685904 -5.492356 52.093190 -0.000003 -0.000004 -0.000000 4.570402 11.014708 -2.160817 0.734694 -6.568118 -6.891701 -8.859297 -39.037680 -63.220470 -0.000023 -19.848354 -0.000013 48.455770 9.039780 -5.575753 2.466112 -1.576209 2.681696 -1.948618 17.809047 8.316553 4.968116 20.881109 1.676102 2.647892 -1.528748 1.528756 0.679607 16.452633 3.900980 1.998929 -1.154094 1.154078 0.000001 -0.000000 -0.000002 9.109296 -0.517998 2.259896 0.000262 0.060861 -0.504347 0.103038 1.189173 -9.904392 0.223415 1.743213 -14.606834 0.000001 0.000002 0.000000 9.533411 0.000014 -0.000003 0.072636 0.999636 -8.313334 0.285356 1.965497 -16.520908 0.419303 2.370465 -20.060788 -0.000002 -0.000001 0.000002 9.104503 -0.042997 -1.865103 0.342383 2.148330 -18.110052 0.636675 2.896642 -24.788860 0.745520 3.121280 -26.862582 0.000000 0.000001 -0.000002 8.077801 -0.486874 -3.806305 2.465942 6.674719 -25.594923 1.023736 -0.464601 -31.841201 1.069877 3.691479 -32.317402 0.000001 0.000002 0.000001 -8.207801 -6.751728 -1.599540 -18.444649 -5.052216 3.577769 38.532717 4.255126 8.553904 -18.280836 0.769744 -4.061762 -1.475776 -0.000006 0.000002 0.000000 -0.000001 0.000000 8.207801 -6.751718 -1.599548 -22.389970 9.482361 22.008604 43.378388 -2.603009 10.135001 -22.026527 3.572932 -14.717678 -0.393744 -0.000002 0.000001 0.000000 0.000000 0.000000 
